<svg xmlns="http://www.w3.org/2000/svg" version="1.1" xmlns:xlink="http://www.w3.org/1999/xlink" width="512" height="512" x="0" y="0" viewBox="0 0 32 32" style="enable-background:new 0 0 512 512" xml:space="preserve" class=""><g><path fill-rule="evenodd" d="M24 1.5c4.4 0 8 3.6 8 8v9c0 4.4-3.6 8-8 8H9.3c-.9 0-1.7.3-2.4.8l-3.7 2.8c-.9.7-2.1.5-2.8-.4-.3-.3-.4-.8-.4-1.2v-19c0-4.4 3.6-8 8-8zm-2.6 10.1c-.5-.2-1.1 0-1.3.5-.7 1.4-2.3 2.4-4.1 2.4s-3.4-1-4.1-2.4c-.2-.5-.8-.7-1.3-.5s-.7.8-.5 1.3c1 2.1 3.4 3.6 5.9 3.6s4.9-1.4 5.9-3.6c.2-.5 0-1.1-.5-1.3z" clip-rule="evenodd" fill="#ffffff" opacity="1" data-original="#000000" class=""></path></g></svg>